{"title":"Hollywood Stuntmakers - History of Special FX (1992) TVRip greek","uid":6687203,"size":527314944,"categoryP":"video","categoryS":"tv_shows","magnet":"?xt=urn:btih:20b9ac7195c8f3dd0a976e9bcb3409c398f435b9&amp;dn=Hollywood+Stuntmakers+-+History+of+Special+FX+%281992%29+TVRip+greek&amp;tr=udp%3A%2F%2Ftracker.openbittorrent.com%3A80&amp;tr=udp%3A%2F%2Fopen.demonii.com%3A1337&amp;tr=udp%3A%2F%2Ftracker.coppersurfer.tk%3A6969&amp;tr=udp%3A%2F%2Fexodus.desync.com%3A6969","seeders":0,"leechers":2,"uploader":"filfiesta","files":-1,"time":1316449284,"description":"Hollywood Stuntmakers - History of Special Effects/Futuristic Films (1992)\n--------------------------------------------------------------------------\nTake a look of the art of the Special FX and how the artists evolve them for the films: A Trip to the Moon, T2, Star Wars, The Lawnmower Man and more. Interviews of the FX artists about their progress and achievements on miniatures, matte painting and CGI, also included.\nA hard to find episode of these rare vintage TV series, hosted by Chris Reeve.\nRipped from a Greek TV network that broadcasted these series in the mid 90s.\n\n &lt;a href=&quot;\nhttp://www.imdb.com/title/tt0101119/&quot; rel=&quot;nofollow&quot; target=&quot;_NEW&quot;&gt;\nhttp://www.imdb.com/title/tt0101119/&lt;/a&gt;\n\n\nSPECS\n\nSubtitles                        : Greek hard subs\n\nVideo\nFormat                           : MPEG-4 Visual\nCodec ID                         : XVID\nCodec ID/Hint                    : XviD\nDuration                         : 21mn 14s\nBit rate                         : 3 143 Kbps\nWidth                            : 640 pixels\nHeight                           : 480 pixels\nDisplay aspect ratio             : 4:3\nFrame rate                       : 25.000 fps\nColor space                      : YUV\nChroma subsampling               : 4:2:0\nBit depth                        : 8 bits\nScan type                        : Progressive\nCompression mode                 : Lossy\nBits/(Pixel*Frame)               : 0.336\nStream size                      : 477 MiB (95%)\n\nAudio\nFormat                           : MPEG Audio\nFormat version                   : Version 1\nFormat profile                   : Layer 3\nMode                             : Joint stereo\nMode extension                   : MS Stereo\nCodec ID/Hint                    : MP3\nDuration                         : 21mn 14s\nBit rate mode                    : Constant\nBit rate                         : 160 Kbps\nChannel(s)                       : 2 channels\nSampling rate                    : 48.0 KHz\nCompression mode                 : Lossy\nStream size                      : 24.3 MiB (5%)\n\n\n\nscreenshots &lt;a href=&quot;\nhttp://img.hostedpic.com/images/22642574761951058643.jpg&quot; rel=&quot;nofollow&quot; target=&quot;_NEW&quot;&gt;\nhttp://img.hostedpic.com/images/22642574761951058643.jpg&lt;/a&gt; &lt;a href=&quot;\nhttp://img.hostedpic.com/images/47037022759227441459.jpg&quot; rel=&quot;nofollow&quot; target=&quot;_NEW&quot;&gt;\nhttp://img.hostedpic.com/images/47037022759227441459.jpg&lt;/a&gt; &lt;a href=&quot;\nhttp://img.hostedpic.com/images/02881011565010063822.jpg&quot; rel=&quot;nofollow&quot; target=&quot;_NEW&quot;&gt;\nhttp://img.hostedpic.com/images/02881011565010063822.jpg&lt;/a&gt; &lt;a href=&quot;\nhttp://img.hostedpic.com/images/48214308654042916776.jpg&quot; rel=&quot;nofollow&quot; target=&quot;_NEW&quot;&gt;\nhttp://img.hostedpic.com/images/48214308654042916776.jpg&lt;/a&gt;\n\n\nENJOY AND SEED FOR THE OTHERS.","torrent":{"xt":"urn:btih:20b9ac7195c8f3dd0a976e9bcb3409c398f435b9","amp;dn":"Hollywood+Stuntmakers+-+History+of+Special+FX+%281992%29+TVRip+greek","amp;tr":["udp%3A%2F%2Ftracker.openbittorrent.com%3A80","udp%3A%2F%2Fopen.demonii.com%3A1337","udp%3A%2F%2Ftracker.coppersurfer.tk%3A6969","udp%3A%2F%2Fexodus.desync.com%3A6969"],"infoHash":"20b9ac7195c8f3dd0a976e9bcb3409c398f435b9","infoHashBuffer":{"type":"Buffer","data":[32,185,172,113,149,200,243,221,10,151,110,155,203,52,9,195,152,244,53,185]},"announce":[],"urlList":[]}}